# xmcd
#
# Track frame offsets:
#	150
#	16452
#	33181
#	48639
#	66029
#	81893
#	101269
#	121182
#	142659
#	157570
#	174267
#	193196
#	211909
#	228213
#	242914
#	260109
#	279723
#	297295
#
# Disc length: 4234 seconds
#
# Revision: 1
# Processed by: cddbd v1.5.2PL0 Copyright (c) Steve Scherf et al.
# Submitted via: audiograbber 1.83.01
#
DISCID=f0108812
DTITLE=Various Artist - Nu Urban Traxx 032
DYEAR=2002
DGENRE=Hip-Hop
TTITLE0=R. Kelly and Jay-Z - Take You Home With Me Aka Body
TTITLE1=Glenn Lewis Ft Paul Cain - Don't You Forget It (Dj Clue Remix)
TTITLE2=Mobb Deep - Get Away
TTITLE3=Isyss Ft Jadakiss - Day and Night
TTITLE4=Alicia Keys - How Come You Don't Call Me
TTITLE5=Petey Pablo - I Told Y' All
TTITLE6=Ying Yang Twins - Say I Yi Yi
TTITLE7=N Sync Ft Nelly - Girlfriend (Remix)
TTITLE8=Big Moe - Purple Stuff
TTITLE9=Jaguar Wright - The What If's
TTITLE10=Mystikal Ft Butch Cassidy - Tarantula
TTITLE11=Gerald Levert - What Makes It Good To You (No Premature Lovin')
TTITLE12=Raphael Saadiq Ft D'angelo - Be Here
TTITLE13=Code 5 - What;s Ur Name Girl?
TTITLE14=Lil Troy - Back To Ballin'
TTITLE15=Big Timers - Still Fly
TTITLE16=Warren G - Ghetto Village
TTITLE17=Redman and Gorillaz - Gorillaz On My Mind
EXTD=
EXTT0=
EXTT1=
EXTT2=
EXTT3=
EXTT4=
EXTT5=
EXTT6=
EXTT7=
EXTT8=
EXTT9=
EXTT10=
EXTT11=
EXTT12=
EXTT13=
EXTT14=
EXTT15=
EXTT16=
EXTT17=
PLAYORDER=
